<svg xmlns="http://www.w3.org/2000/svg" viewBox="0 0 1200 630" role="img" aria-labelledby="title desc">
  <title id="title">AI Pricing Checklist</title>
  <desc id="desc">Checklist style image to evaluate AI tool pricing.</desc>
  <defs>
    <linearGradient id="bg" x1="0" y1="0" x2="1" y2="1">
      <stop offset="0%" stop-color="#0f3c2b" />
      <stop offset="100%" stop-color="#22b57a" />
    </linearGradient>
  </defs>
  <rect width="1200" height="630" fill="url(#bg)" />
  <rect x="112" y="80" width="976" height="470" rx="30" fill="rgba(255,255,255,0.1)" stroke="rgba(255,255,255,0.33)" />
  <rect x="170" y="146" width="860" height="340" rx="20" fill="rgba(255,255,255,0.14)" />
  <rect x="224" y="200" width="54" height="54" rx="10" fill="rgba(255,255,255,0.3)" />
  <path d="M238 226 L250 239 L268 214" stroke="#08351f" stroke-width="8" fill="none" stroke-linecap="round" stroke-linejoin="round" />
  <rect x="308" y="206" width="650" height="40" rx="8" fill="rgba(255,255,255,0.22)" />
  <rect x="224" y="286" width="54" height="54" rx="10" fill="rgba(255,255,255,0.3)" />
  <path d="M238 312 L250 325 L268 300" stroke="#08351f" stroke-width="8" fill="none" stroke-linecap="round" stroke-linejoin="round" />
  <rect x="308" y="292" width="612" height="40" rx="8" fill="rgba(255,255,255,0.2)" />
  <rect x="224" y="372" width="54" height="54" rx="10" fill="rgba(255,255,255,0.3)" />
  <path d="M238 398 L250 411 L268 386" stroke="#08351f" stroke-width="8" fill="none" stroke-linecap="round" stroke-linejoin="round" />
  <rect x="308" y="378" width="560" height="40" rx="8" fill="rgba(255,255,255,0.2)" />
  <text x="174" y="130" fill="#effff7" font-size="42" font-family="Segoe UI, Arial, sans-serif" font-weight="700">AI Pricing Checklist</text>
</svg>
