<svg width="1200" height="630" viewBox="0 0 1200 630" fill="none" xmlns="http://www.w3.org/2000/svg" role="img" aria-label="AI-Influencer System cover art">
  <defs>
    <linearGradient id="bg" x1="80" y1="40" x2="1120" y2="610" gradientUnits="userSpaceOnUse">
      <stop stop-color="#0A0D15"/>
      <stop offset="0.55" stop-color="#101826"/>
      <stop offset="1" stop-color="#05070C"/>
    </linearGradient>
    <linearGradient id="panel" x1="210" y1="90" x2="990" y2="540" gradientUnits="userSpaceOnUse">
      <stop stop-color="#1B2232"/>
      <stop offset="1" stop-color="#070A12"/>
    </linearGradient>
    <linearGradient id="neonBlue" x1="280" y1="170" x2="930" y2="470" gradientUnits="userSpaceOnUse">
      <stop stop-color="#7FE8FF"/>
      <stop offset="1" stop-color="#56A8FF"/>
    </linearGradient>
    <linearGradient id="neonPink" x1="390" y1="210" x2="900" y2="520" gradientUnits="userSpaceOnUse">
      <stop stop-color="#FF92E7"/>
      <stop offset="1" stop-color="#FF5FA3"/>
    </linearGradient>
    <filter id="glow" x="-40%" y="-40%" width="180%" height="180%">
      <feGaussianBlur stdDeviation="10" result="blur"/>
      <feColorMatrix in="blur" type="matrix" values="1 0 0 0 0.3 0 1 0 0 0.8 0 0 1 0 1 0 0 0 1 0" result="glowColor"/>
      <feMerge>
        <feMergeNode in="glowColor"/>
        <feMergeNode in="SourceGraphic"/>
      </feMerge>
    </filter>
  </defs>

  <rect width="1200" height="630" rx="42" fill="url(#bg)"/>
  <rect x="68" y="58" width="1064" height="514" rx="36" fill="url(#panel)" stroke="#263042" stroke-width="2"/>

  <g opacity="0.35">
    <path d="M110 190H245V170H275V150H325V130H375" stroke="#7FE8FF" stroke-width="2"/>
    <path d="M112 262H255V290H298V315H356V340H410" stroke="#FF92E7" stroke-width="2"/>
    <path d="M1090 165H954V145H924V126H870V110H810" stroke="#7FE8FF" stroke-width="2"/>
    <path d="M1094 258H962V282H918V308H862V334H816" stroke="#FF92E7" stroke-width="2"/>
    <path d="M160 430H290V410H336V390H390V370H442" stroke="#7FE8FF" stroke-width="2"/>
    <path d="M1040 432H908V412H862V392H806V370H748" stroke="#FF92E7" stroke-width="2"/>
  </g>

  <g filter="url(#glow)">
    <circle cx="610" cy="298" r="164" stroke="url(#neonBlue)" stroke-width="12" opacity="0.95"/>
    <circle cx="610" cy="298" r="128" stroke="url(#neonPink)" stroke-width="8" opacity="0.48" stroke-dasharray="20 16"/>
    <circle cx="610" cy="298" r="90" stroke="#8AF7FF" stroke-width="3" opacity="0.25"/>
  </g>

  <g transform="translate(420 176)">
    <circle cx="188" cy="102" r="92" fill="#1D2332" opacity="0.82"/>
    <ellipse cx="188" cy="98" rx="64" ry="80" fill="#EEC6B2" opacity="0.92"/>
    <path d="M134 72C146 36 171 18 188 18C210 18 233 33 244 65C247 75 248 89 246 102C232 89 214 79 188 79C162 79 146 86 134 96C132 87 132 79 134 72Z" fill="#E8D8F1" opacity="0.95"/>
    <path d="M132 78C141 60 159 44 188 44C218 44 238 62 246 78C243 117 226 147 188 147C151 147 138 114 132 78Z" fill="#B6D8F4" opacity="0.62"/>
    <path d="M134 71C144 43 165 27 188 27C211 27 231 40 243 69C241 70 236 73 232 77C221 59 208 50 188 50C167 50 150 57 139 76C136 75 135 73 134 71Z" fill="#F7B4D8" opacity="0.75"/>
    <path d="M146 91C157 82 171 77 188 77C205 77 218 81 230 89C227 117 216 136 188 136C161 136 150 117 146 91Z" fill="#E9E9EA" opacity="0.45"/>
    <path d="M118 289C135 228 160 193 188 193C216 193 241 229 258 289" stroke="#F58CC5" stroke-width="30" stroke-linecap="round"/>
    <path d="M118 289C135 228 160 193 188 193C216 193 241 229 258 289" stroke="#5AE1FF" stroke-width="8" stroke-linecap="round" opacity="0.5"/>
  </g>

  <g filter="url(#glow)">
    <path d="M323 470C398 419 523 398 610 398C707 398 813 417 886 467" stroke="url(#neonBlue)" stroke-width="12" stroke-linecap="round" opacity="0.72"/>
    <path d="M350 490C424 449 526 432 610 432C700 432 794 448 850 486" stroke="url(#neonPink)" stroke-width="7" stroke-linecap="round" opacity="0.55"/>
  </g>

  <g transform="translate(120 108)" filter="url(#glow)">
    <text x="0" y="0" font-family="Arial, Helvetica, sans-serif" font-size="34" fill="#A0DFFF" opacity="0.88">AI-Influencer System</text>
  </g>

  <g transform="translate(120 500)">
    <text x="0" y="0" font-family="Arial, Helvetica, sans-serif" font-size="52" font-weight="700" fill="url(#neonBlue)">AI-Influencer</text>
    <text x="0" y="58" font-family="Arial, Helvetica, sans-serif" font-size="54" font-weight="700" fill="url(#neonPink)">System</text>
    <text x="0" y="102" font-family="Arial, Helvetica, sans-serif" font-size="24" fill="#D8DDE8" opacity="0.9">Member area and video courses</text>
  </g>

  <g transform="translate(776 500)">
    <text x="0" y="0" font-family="Arial, Helvetica, sans-serif" font-size="26" fill="#C7CCDB" opacity="0.9">The AI revolution for online income</text>
    <text x="0" y="38" font-family="Arial, Helvetica, sans-serif" font-size="20" fill="#AAB3C6" opacity="0.88">Practical training for creators and marketers</text>
  </g>
</svg>